<svg width="154" height="26" viewBox="0 0 154 26" fill="none" xmlns="http://www.w3.org/2000/svg">
<path d="M118.721 25.5798C118.449 25.5798 117.617 21.1967 117.787 20.6608C117.847 20.4723 118.098 20.4033 118.722 20.4033C119.743 20.4033 119.831 20.5698 119.601 22.08C119.389 23.4756 118.86 25.5798 118.721 25.5798Z" fill="#BA282E"/>
<path fill-rule="evenodd" clip-rule="evenodd" d="M117.938 1.16009C117.823 1.46206 115.177 15.542 115.177 15.8529C115.177 16.0102 115.474 16.0795 116.152 16.0795C117.017 16.0795 117.138 16.0348 117.22 15.684C117.271 15.4666 117.636 13.2754 118.03 10.8151C118.425 8.35463 118.783 6.30653 118.827 6.26382C118.958 6.13445 119.037 6.53222 119.615 10.1911C119.92 12.1246 120.209 13.9045 120.258 14.1463C120.326 14.4828 120.251 14.6274 119.942 14.7615C119.663 14.8825 119.52 15.1141 119.481 15.5082L119.425 16.0795H121.05C122.512 16.0795 122.667 16.0485 122.589 15.7719C122.541 15.6028 121.92 12.3542 121.208 8.55308C120.496 4.75183 119.826 1.52342 119.719 1.37858C119.447 1.01051 118.06 0.840356 117.938 1.16009ZM85.6893 8.68702C84.7028 9.12943 84.3852 9.76609 84.3951 11.2809C84.4054 12.8609 84.6165 13.3819 86.2259 15.7989C88.2504 18.8395 88.3265 19.0193 88.2655 20.6067C88.2174 21.8566 88.1792 21.9747 87.7447 22.215C87.3245 22.4474 87.2275 22.443 86.8104 22.173C86.3719 21.8893 86.345 21.7896 86.345 20.4478V19.0237L85.7758 19.1362C84.6014 19.368 84.3866 19.6515 84.3935 20.9612C84.4045 23.0083 85.0823 23.6347 87.2882 23.6365C89.7281 23.6386 90.2623 23.1176 90.2565 20.7422C90.2518 18.8484 90.0997 18.4614 88.347 15.8807C86.5212 13.1926 86.345 12.7925 86.345 11.3368C86.345 10.1783 86.3751 10.0821 86.797 9.89229C87.1033 9.75448 87.4048 9.74253 87.7314 9.85555C88.1772 10.0097 88.2178 10.1053 88.2667 11.1174C88.2957 11.7198 88.3943 12.2125 88.4855 12.2125C88.5768 12.2125 88.9742 12.0849 89.3686 11.9291C90.1714 11.6119 90.3679 11.1888 90.2002 10.1377C89.9541 8.59403 87.5913 7.83417 85.6893 8.68702ZM132.855 8.53831C132.545 8.62708 132.085 8.94241 131.832 9.23912L131.372 9.77857V15.9258C131.372 22.6732 131.396 22.8409 132.434 23.371C133.151 23.7372 135.314 23.725 136.114 23.3503C137.054 22.9096 137.245 22.364 137.245 20.1191C137.245 18.1736 137.243 18.1655 136.845 18.287C135.46 18.7089 135.32 18.931 135.244 20.8194C135.203 21.8422 135.151 21.9819 134.729 22.2152C134.309 22.4474 134.212 22.443 133.795 22.173L133.33 21.8719V15.9839V10.0957L133.782 9.89229C134.088 9.7543 134.389 9.74253 134.716 9.85591C135.196 10.0222 135.199 10.0334 135.249 11.9263L135.3 13.8294L135.783 13.7111C137.118 13.3838 137.152 13.3318 137.207 11.4843C137.255 9.88385 137.233 9.76415 136.795 9.25019C136.09 8.42335 134.354 8.1096 132.855 8.53831ZM2.7915 8.74098C2.75128 8.86191 2.1524 12.006 1.4608 15.7279C0.769199 19.4499 0.157503 22.7126 0.101619 22.9785L0 23.4619H1.04897H2.09794L2.88725 18.5489C3.32114 15.8468 3.72585 13.6913 3.78637 13.7591C3.84688 13.827 4.19054 15.7016 4.55022 17.9251C5.20392 21.9671 5.20391 21.9679 4.84085 22.209C4.59507 22.3721 4.47761 22.6421 4.47761 23.0439V23.6377H5.99038C6.8224 23.6377 7.50314 23.5705 7.50314 23.4885C7.50314 23.4062 6.90302 20.1831 6.16942 16.3257C5.436 12.4682 4.83534 9.25863 4.83463 9.19289C4.82946 8.63428 2.96449 8.22157 2.7915 8.74098ZM15.156 8.62672C15.156 8.68473 15.7634 11.908 16.5057 15.7894C17.3829 20.3768 17.9532 22.9543 18.135 23.1543C18.425 23.4733 19.9612 23.6064 19.9612 23.3127C19.9612 23.2304 20.5613 20.0073 21.295 16.15C22.0284 12.2925 22.629 8.99796 22.6297 8.82887C22.6306 8.57769 22.4712 8.52126 21.7602 8.52126C21.0048 8.52126 20.8767 8.57364 20.7924 8.91675C20.7388 9.13418 20.3245 11.2883 19.8715 13.7036C19.4186 16.1187 19.0149 18.1272 18.9749 18.1669C18.8549 18.2854 18.7788 17.9395 17.9174 13.3599C17.4632 10.9459 17.0067 8.86947 16.9029 8.7459C16.7178 8.52584 15.156 8.41914 15.156 8.62672ZM33.2202 8.74098C33.1449 8.95314 30.4616 23.1835 30.4616 23.37C30.4616 23.4206 30.9243 23.4619 31.4899 23.4619H32.5184L33.3031 18.5382C33.7349 15.8301 34.1415 13.6747 34.2069 13.7484C34.2724 13.822 34.5804 15.5038 34.8915 17.4857C35.2028 19.4675 35.5021 21.3119 35.557 21.5845C35.6372 21.9844 35.5845 22.0984 35.2838 22.1763C34.986 22.2531 34.9109 22.4101 34.9109 22.9552V23.6377H36.4237C37.2557 23.6377 37.9354 23.5785 37.934 23.5059C37.9327 23.4333 37.3064 20.105 36.5424 16.1095C35.6059 11.2123 35.0702 8.793 34.8985 8.68578C34.5174 8.44761 33.3101 8.48734 33.2202 8.74098ZM46.6571 15.9916V23.4619H47.547H48.4368V19.5598C48.4368 17.3507 48.5038 15.73 48.591 15.8246C48.6757 15.9164 49.1647 17.534 49.6777 19.4192C50.1908 21.3043 50.7345 22.9852 50.8861 23.1543C51.0689 23.3584 51.422 23.4619 51.9349 23.4619H52.7082V15.9916V8.52126H51.7325H50.7571L50.7092 12.608L50.6615 16.6947L49.707 12.9156C48.6565 8.7561 48.5304 8.52126 47.3492 8.52126H46.6571V15.9916ZM61.4733 8.63762C61.3486 8.68737 61.2509 9.02854 61.2509 9.41472V10.1032H62.5857H63.9204V16.7826V23.4619H64.8103H65.7002V17.0606C65.7002 13.5399 65.7488 10.5342 65.8082 10.3813C65.8901 10.1707 66.1739 10.1032 66.9768 10.1032C67.56 10.1032 68.1913 10.0218 68.3795 9.92216C68.676 9.76555 69.2596 8.90058 69.2596 8.61794C69.2596 8.49718 61.778 8.51634 61.4733 8.63762ZM100.939 15.9916V23.4619H101.825H102.711L102.759 20.1662L102.807 16.8705L103.964 16.7704C105.34 16.6514 105.824 16.4229 106.287 15.6727C106.587 15.1858 106.633 14.7774 106.633 12.5438C106.634 10.1742 106.604 9.93728 106.248 9.49047C105.642 8.73008 104.903 8.52126 102.813 8.52126H100.939V15.9916ZM148.324 8.63762C148.151 8.7067 148.101 10.3653 148.101 16.099V23.4716L150.631 23.4227L153.16 23.374L153.58 22.7588L154 22.1436L152.025 22.0939L150.05 22.0441L150.099 19.2815L150.148 16.5189L150.771 16.4714C151.89 16.3862 152.185 16.2575 152.459 15.7341C152.894 14.9032 152.828 14.8491 151.394 14.8491H150.059V12.4761V10.1032H151.201C152.668 10.1032 152.849 10.0245 153.274 9.20274L153.626 8.52126L151.086 8.53515C149.689 8.5427 148.446 8.58893 148.324 8.63762ZM104.458 10.2011C104.831 10.4588 104.854 10.6014 104.854 12.6493C104.854 15.1793 104.757 15.3764 103.507 15.3764H102.718V12.7692C102.718 11.335 102.772 10.109 102.837 10.0447C103.056 9.82813 104.059 9.92481 104.458 10.2011Z" fill="white"/>
</svg>
